<?xml version="1.0" encoding="UTF-8"?>
<!DOCTYPE svg PUBLIC "-//W3C//DTD SVG 1.1//EN" "http://www.w3.org/Graphics/SVG/1.1/DTD/svg11.dtd">
<svg version="1.1" xmlns="http://www.w3.org/2000/svg" xmlns:xlink="http://www.w3.org/1999/xlink" width="1024" height="1024"  xml:space="preserve" id="swiftUIRulesIcon">
    <!-- Generated by PaintCode - http://www.paintcodeapp.com -->
    <defs>
        <linearGradient id="swiftUIRulesIcon-blueGradient-backgroundRect" x1="422.82" y1="682.42" x2="422.82" y2="0" gradientUnits="userSpaceOnUse" >
            <stop offset="0" stop-color="rgb(190, 27, 27)" stop-opacity="1" />
            <stop offset="0.51" stop-color="rgb(217, 86, 86)" stop-opacity="1" />
            <stop offset="1" stop-color="rgb(244, 146, 146)" stop-opacity="1" />
        </linearGradient>
        <filter id="swiftUIRulesIcon-shadow-outer" filterUnits="objectBoundingBox">
            <feGaussianBlur stdDeviation="14" />
            <feOffset dx="10" dy="10" result="blur" />
            <feFlood flood-color="rgb(159, 159, 159)" flood-opacity="0.6" />
            <feComposite in2="blur" operator="in" result="colorShadow" />
            <feComposite in="SourceGraphic" in2="colorShadow" operator="over" />
        </filter>
        <filter id="swiftUIRulesIcon-shadow-inner" filterUnits="objectBoundingBox">
            <feGaussianBlur in="SourceAlpha" stdDeviation="14" result="blur"/>
            <feOffset dx="10" dy="10"/>
            <feComposite in2="SourceAlpha" operator="arithmetic" k2="-1.15" k3="1.15" result="shadowDiff"/>
            <feFlood flood-color="rgb(159, 159, 159)" flood-opacity="0.6"/>
            <feComposite in2="shadowDiff" operator="in"/>
            <feComposite in2="SourceGraphic" operator="over"/>
        </filter>
    </defs>
    <rect id="swiftUIRulesIcon-backgroundRect" stroke="none" fill="url(#swiftUIRulesIcon-blueGradient-backgroundRect)" filter="url(#swiftUIRulesIcon-shadow-outer)" x="-0" y="0" width="845.63" height="682.42"  transform="translate(17, 265.43) rotate(-9)" />
    <rect stroke="rgb(188, 188, 188)" stroke-width="1" stroke-miterlimit="10" fill="none" x="-0" y="0" width="845.63" height="682.42"  transform="translate(17, 265.43) rotate(-9)" />
    <rect id="swiftUIRulesIcon-frameRect" stroke="rgb(255, 255, 255)" stroke-width="6" stroke-miterlimit="10" fill="none" x="-0" y="0" width="807.07" height="646.21"  transform="translate(39.28, 279.88) rotate(-9)" />
    <path id="swiftUIRulesIcon-mark" stroke="none" fill="rgb(240, 240, 240)" filter="url(#swiftUIRulesIcon-shadow-inner)" d="M 584.3,292.55 L 596.4,368.99 564.81,373.99 624.24,749.2 552.62,760.54 493.2,385.33 452.93,391.71 512.35,766.92 440.74,778.26 401.7,531.82 385.07,534.46 C 352.59,539.6 327.53,539.49 309.87,534.13 292.21,528.77 277.45,518.5 265.57,503.33 253.69,488.16 246.11,470.2 242.82,449.46 237.7,417.15 244.07,390.72 261.9,370.18 279.74,349.64 309.08,336.14 349.91,329.67 L 584.3,292.55 Z M 584.3,292.55" />
</svg>
